<svg id="Layer_1" data-name="Layer 1" xmlns="http://www.w3.org/2000/svg" viewBox="0 0 1000 1000">
  <defs>
    <style>
      .cls-1 {
        fill: #1d3d2c;
      }
    </style>
  </defs>
  <path class="cls-1" d="M878.7084,296.6929H121.2916a58.0244,58.0244,0,0,0-58.0254,58.0253V645.2817a58.0244,58.0244,0,0,0,58.0254,58.0254H878.7084a58.0244,58.0244,0,0,0,58.0254-58.0254V354.7182A58.0244,58.0244,0,0,0,878.7084,296.6929ZM168.0371,658.0976a7.5519,7.5519,0,0,1-7.5449,7.56h-14.367a7.5649,7.5649,0,0,1-7.56-7.56V341.9023a7.5649,7.5649,0,0,1,7.56-7.56h14.367a7.5519,7.5519,0,0,1,7.5449,7.56Zm53.5526,0a7.5648,7.5648,0,0,1-7.56,7.56h-26.4a7.5648,7.5648,0,0,1-7.56-7.56V341.9023a7.5648,7.5648,0,0,1,7.56-7.56h26.4a7.5648,7.5648,0,0,1,7.56,7.56Zm47.092,0a7.5648,7.5648,0,0,1-7.56,7.56h-.0151a7.5648,7.5648,0,0,1-7.56-7.56V341.9023a7.5648,7.5648,0,0,1,7.56-7.56h.0151a7.5648,7.5648,0,0,1,7.56,7.56Zm59.456,0a7.5648,7.5648,0,0,1-7.56,7.56H293.2141a7.5649,7.5649,0,0,1-7.56-7.56V341.9023a7.5649,7.5649,0,0,1,7.56-7.56h27.3636a7.5648,7.5648,0,0,1,7.56,7.56Zm65.42,0a7.5648,7.5648,0,0,1-7.56,7.56H371.63a7.5648,7.5648,0,0,1-7.56-7.56V341.9023a7.5648,7.5648,0,0,1,7.56-7.56h14.367a7.5648,7.5648,0,0,1,7.56,7.56Zm60.0885,0a7.5648,7.5648,0,0,1-7.56,7.56H415.2736a7.5553,7.5553,0,0,1-7.56-7.56V341.9023a7.5552,7.5552,0,0,1,7.56-7.56H446.086a7.5648,7.5648,0,0,1,7.56,7.56Zm48.6131,0a7.5649,7.5649,0,0,1-7.56,7.56h-.03a7.552,7.552,0,0,1-7.545-7.56V341.9023a7.552,7.552,0,0,1,7.545-7.56h.03a7.5649,7.5649,0,0,1,7.56,7.56Zm43.3421,0a7.5649,7.5649,0,0,1-7.56,7.56H524.8486a7.5552,7.5552,0,0,1-7.56-7.56V341.9023a7.5552,7.5552,0,0,1,7.56-7.56H538.041a7.5649,7.5649,0,0,1,7.56,7.56Zm46.2034,0a7.5649,7.5649,0,0,1-7.56,7.56H569.8774a7.5649,7.5649,0,0,1-7.56-7.56V341.9023a7.5648,7.5648,0,0,1,7.56-7.56h14.3671a7.5648,7.5648,0,0,1,7.56,7.56Zm62.1818,0a7.552,7.552,0,0,1-7.5449,7.56h-.03a7.552,7.552,0,0,1-7.5449-7.56V341.9023a7.552,7.552,0,0,1,7.5449-7.56h.03a7.552,7.552,0,0,1,7.5449,7.56Zm45.1041,0a7.552,7.552,0,0,1-7.545,7.56h-14.367a7.5648,7.5648,0,0,1-7.56-7.56V341.9023a7.5648,7.5648,0,0,1,7.56-7.56h14.367a7.552,7.552,0,0,1,7.545,7.56Zm27.71,0a7.5649,7.5649,0,0,1-7.56,7.56h-.0151a7.5648,7.5648,0,0,1-7.56-7.56V341.9023a7.5648,7.5648,0,0,1,7.56-7.56h.0151a7.5648,7.5648,0,0,1,7.56,7.56Zm60.1789,0a7.5649,7.5649,0,0,1-7.56,7.56h-14.367a7.552,7.552,0,0,1-7.5449-7.56V341.9023a7.552,7.552,0,0,1,7.5449-7.56h14.367a7.5649,7.5649,0,0,1,7.56,7.56Zm74.4556,0a7.5649,7.5649,0,0,1-7.56,7.56h-26.4a7.5649,7.5649,0,0,1-7.56-7.56V341.9023a7.5649,7.5649,0,0,1,7.56-7.56h26.4a7.5649,7.5649,0,0,1,7.56,7.56Z" />
</svg>