<svg id="Layer_1" data-name="Layer 1" xmlns="http://www.w3.org/2000/svg" viewBox="0 0 1000 1000"><defs><style>.cls-1{fill:none;stroke:#000;stroke-miterlimit:10;}</style></defs><rect x="846.15" y="230.77" width="76.93" height="76.92"/><rect x="923.08" y="307.69" width="76.92" height="76.93"/><rect x="923.08" y="461.54" width="76.92" height="76.92"/><rect x="923.08" y="615.38" width="76.92" height="76.93"/><rect x="846.15" y="384.62" width="76.93" height="76.92"/><rect x="846.15" y="538.46" width="76.93" height="76.92"/><rect x="769.23" y="461.54" width="76.92" height="76.92"/><rect x="769.23" y="307.69" width="76.92" height="76.93"/><rect x="692.31" y="384.62" width="76.92" height="76.92"/><rect x="692.31" y="230.77" width="76.92" height="76.92"/><rect x="615.38" y="307.69" width="76.93" height="76.93"/><rect x="538.46" y="230.77" width="76.92" height="76.92"/><rect x="384.62" y="230.77" width="76.92" height="76.92"/><rect x="461.54" y="307.69" width="76.92" height="76.93"/><rect x="538.46" y="384.62" width="76.92" height="76.92"/><rect x="615.38" y="461.54" width="76.93" height="76.92"/><rect x="692.31" y="538.46" width="76.92" height="76.92"/><rect x="769.23" y="615.38" width="76.92" height="76.93"/><rect x="846.15" y="692.31" width="76.93" height="76.92"/><rect x="923.08" y="769.23" width="76.92" height="76.92"/><rect x="923.08" y="923.08" width="76.92" height="76.92"/><rect x="846.15" y="846.15" width="76.93" height="76.93"/><rect x="769.23" y="769.23" width="76.92" height="76.92"/><rect x="692.31" y="692.31" width="76.92" height="76.92"/><rect x="615.38" y="615.38" width="76.93" height="76.93"/><rect x="538.46" y="538.46" width="76.92" height="76.92"/><rect x="461.54" y="461.54" width="76.92" height="76.92"/><rect x="384.62" y="384.62" width="76.92" height="76.92"/><rect x="307.69" y="307.69" width="76.93" height="76.93"/><rect x="230.77" y="230.77" width="76.92" height="76.92"/><rect y="923.08" width="76.92" height="76.92"/><rect y="769.23" width="76.92" height="76.92"/><rect x="76.92" y="846.15" width="76.93" height="76.93"/><rect x="153.85" y="923.08" width="76.92" height="76.92"/><rect x="307.69" y="923.08" width="76.93" height="76.92"/><rect x="230.77" y="846.15" width="76.92" height="76.93"/><rect x="153.85" y="769.23" width="76.92" height="76.92"/><rect x="76.92" y="692.31" width="76.93" height="76.92"/><rect y="615.38" width="76.92" height="76.93"/><rect x="461.54" y="923.08" width="76.92" height="76.92"/><rect x="384.62" y="846.15" width="76.92" height="76.93"/><rect x="307.69" y="769.23" width="76.93" height="76.92"/><rect x="230.77" y="692.31" width="76.92" height="76.92"/><rect x="153.85" y="615.38" width="76.92" height="76.93"/><rect x="76.92" y="538.46" width="76.93" height="76.92"/><rect y="461.54" width="76.92" height="76.92"/><rect x="615.38" y="923.08" width="76.93" height="76.92"/><rect x="538.46" y="846.15" width="76.92" height="76.93"/><rect x="461.54" y="769.23" width="76.92" height="76.92"/><rect x="384.62" y="692.31" width="76.92" height="76.92"/><rect x="307.69" y="615.38" width="76.93" height="76.93"/><rect x="230.77" y="538.46" width="76.92" height="76.92"/><rect x="153.85" y="461.54" width="76.92" height="76.92"/><rect x="76.92" y="384.62" width="76.93" height="76.92"/><rect y="307.69" width="76.92" height="76.93"/><rect x="769.23" y="923.08" width="76.92" height="76.92"/><rect x="692.31" y="846.15" width="76.92" height="76.93"/><rect x="615.38" y="769.23" width="76.93" height="76.92"/><rect x="538.46" y="692.31" width="76.92" height="76.92"/><rect x="461.54" y="615.38" width="76.92" height="76.93"/><rect x="384.62" y="538.46" width="76.92" height="76.92"/><rect x="307.69" y="461.54" width="76.93" height="76.92"/><rect x="230.77" y="384.62" width="76.92" height="76.92"/><rect x="153.85" y="307.69" width="76.92" height="76.93"/><rect x="76.92" y="230.77" width="76.93" height="76.92"/><rect x="923.08" y="153.85" width="76.92" height="76.92"/><rect x="769.23" y="153.85" width="76.92" height="76.92"/><rect x="615.38" y="153.85" width="76.93" height="76.92"/><rect x="461.54" y="153.85" width="76.92" height="76.92"/><rect x="307.69" y="153.85" width="76.93" height="76.92"/><rect x="153.85" y="153.85" width="76.92" height="76.92"/><rect y="153.85" width="76.92" height="76.92"/><rect x="846.15" y="76.92" width="76.93" height="76.93"/><rect x="692.31" y="76.92" width="76.92" height="76.93"/><rect x="538.46" y="76.92" width="76.92" height="76.93"/><rect x="384.62" y="76.92" width="76.92" height="76.93"/><rect x="230.77" y="76.92" width="76.92" height="76.93"/><rect x="76.92" y="76.92" width="76.93" height="76.93"/><rect x="923.08" width="76.92" height="76.92"/><rect x="769.23" width="76.92" height="76.92"/><rect x="615.38" width="76.93" height="76.92"/><rect x="461.54" width="76.92" height="76.92"/><rect x="307.69" width="76.93" height="76.92"/><rect x="153.85" width="76.92" height="76.92"/><rect width="76.92" height="76.92"/><polygon class="cls-1" points="0 76.92 0 0 76.92 0 153.85 0 230.77 0 307.69 0 384.62 0 461.54 0 538.46 0 615.38 0 692.31 0 769.23 0 846.15 0 923.08 0 1000 0 1000 76.92 1000 153.85 1000 230.77 1000 307.69 1000 384.62 1000 461.54 1000 538.46 1000 615.38 1000 692.31 1000 769.23 1000 846.15 1000 923.08 1000 1000 923.08 1000 846.15 1000 769.23 1000 692.31 1000 615.38 1000 538.46 1000 461.54 1000 384.62 1000 307.69 1000 230.77 1000 153.85 1000 76.92 1000 0 1000 0 923.08 0 846.15 0 769.23 0 692.31 0 615.38 0 538.46 0 461.54 0 384.62 0 307.69 0 230.77 0 153.85 0 76.92"/><polyline class="cls-1" points="0 923.08 76.92 923.08 153.85 923.08 230.77 923.08 307.69 923.08 384.62 923.08 461.54 923.08 538.46 923.08 615.38 923.08 692.31 923.08 769.23 923.08 846.15 923.08 923.08 923.08 1000 923.08"/><polyline class="cls-1" points="0 846.15 76.92 846.15 153.85 846.15 230.77 846.15 307.69 846.15 384.62 846.15 461.54 846.15 538.46 846.15 615.38 846.15 692.31 846.15 769.23 846.15 846.15 846.15 923.08 846.15 1000 846.15"/><polyline class="cls-1" points="0 769.23 76.92 769.23 153.85 769.23 230.77 769.23 307.69 769.23 384.62 769.23 461.54 769.23 538.46 769.23 615.38 769.23 692.31 769.23 769.23 769.23 846.15 769.23 923.08 769.23 1000 769.23"/><polyline class="cls-1" points="0 692.31 76.92 692.31 153.85 692.31 230.77 692.31 307.69 692.31 384.62 692.31 461.54 692.31 538.46 692.31 615.38 692.31 692.31 692.31 769.23 692.31 846.15 692.31 923.08 692.31 1000 692.31"/><polyline class="cls-1" points="0 615.38 76.92 615.38 153.85 615.38 230.77 615.38 307.69 615.38 384.62 615.38 461.54 615.38 538.46 615.38 615.38 615.38 692.31 615.38 769.23 615.38 846.15 615.38 923.08 615.38 1000 615.38"/><polyline class="cls-1" points="0 538.46 76.92 538.46 153.85 538.46 230.77 538.46 307.69 538.46 384.62 538.46 461.54 538.46 538.46 538.46 615.38 538.46 692.31 538.46 769.23 538.46 846.15 538.46 923.08 538.46 1000 538.46"/><polyline class="cls-1" points="0 461.54 76.92 461.54 153.85 461.54 230.77 461.54 307.69 461.54 384.62 461.54 461.54 461.54 538.46 461.54 615.38 461.54 692.31 461.54 769.23 461.54 846.15 461.54 923.08 461.54 1000 461.54"/><polyline class="cls-1" points="0 384.62 76.92 384.62 153.85 384.62 230.77 384.62 307.69 384.62 384.62 384.62 461.54 384.62 538.46 384.62 615.38 384.62 692.31 384.62 769.23 384.62 846.15 384.62 923.08 384.62 1000 384.62"/><polyline class="cls-1" points="0 307.69 76.92 307.69 153.85 307.69 230.77 307.69 307.69 307.69 384.62 307.69 461.54 307.69 538.46 307.69 615.38 307.69 692.31 307.69 769.23 307.69 846.15 307.69 923.08 307.69 1000 307.69"/><polyline class="cls-1" points="0 230.77 76.92 230.77 153.85 230.77 230.77 230.77 307.69 230.77 384.62 230.77 461.54 230.77 538.46 230.77 615.38 230.77 692.31 230.77 769.23 230.77 846.15 230.77 923.08 230.77 1000 230.77"/><polyline class="cls-1" points="0 153.85 76.92 153.85 153.85 153.85 230.77 153.85 307.69 153.85 384.62 153.85 461.54 153.85 538.46 153.85 615.38 153.85 692.31 153.85 769.23 153.85 846.15 153.85 923.08 153.85 1000 153.85"/><polyline class="cls-1" points="0 76.92 76.92 76.92 153.85 76.92 230.77 76.92 307.69 76.92 384.62 76.92 461.54 76.92 538.46 76.92 615.38 76.92 692.31 76.92 769.23 76.92 846.15 76.92 923.08 76.92 1000 76.92"/><polyline class="cls-1" points="923.08 0 923.08 76.92 923.08 153.85 923.08 230.77 923.08 307.69 923.08 384.62 923.08 461.54 923.08 538.46 923.08 615.38 923.08 692.31 923.08 769.23 923.08 846.15 923.08 923.08 923.08 1000"/><polyline class="cls-1" points="846.15 0 846.15 76.92 846.15 153.85 846.15 230.77 846.15 307.69 846.15 384.62 846.15 461.54 846.15 538.46 846.15 615.38 846.15 692.31 846.15 769.23 846.15 846.15 846.15 923.08 846.15 1000"/><polyline class="cls-1" points="769.23 0 769.23 76.92 769.23 153.85 769.23 230.77 769.23 307.69 769.23 384.62 769.23 461.54 769.23 538.46 769.23 615.38 769.23 692.31 769.23 769.23 769.23 846.15 769.23 923.08 769.23 1000"/><polyline class="cls-1" points="692.31 0 692.31 76.92 692.31 153.85 692.31 230.77 692.31 307.69 692.31 384.62 692.31 461.54 692.31 538.46 692.31 615.38 692.31 692.31 692.31 769.23 692.31 846.15 692.31 923.08 692.31 1000"/><polyline class="cls-1" points="615.38 0 615.38 76.92 615.38 153.85 615.38 230.77 615.38 307.69 615.38 384.62 615.38 461.54 615.38 538.46 615.38 615.38 615.38 692.31 615.38 769.23 615.38 846.15 615.38 923.08 615.38 1000"/><polyline class="cls-1" points="538.46 0 538.46 76.92 538.46 153.85 538.46 230.77 538.46 307.69 538.46 384.62 538.46 461.54 538.46 538.46 538.46 615.38 538.46 692.31 538.46 769.23 538.46 846.15 538.46 923.08 538.46 1000"/><polyline class="cls-1" points="461.54 0 461.54 76.92 461.54 153.85 461.54 230.77 461.54 307.69 461.54 384.62 461.54 461.54 461.54 538.46 461.54 615.38 461.54 692.31 461.54 769.23 461.54 846.15 461.54 923.08 461.54 1000"/><polyline class="cls-1" points="384.62 0 384.62 76.92 384.62 153.85 384.62 230.77 384.62 307.69 384.62 384.62 384.62 461.54 384.62 538.46 384.62 615.38 384.62 692.31 384.62 769.23 384.62 846.15 384.62 923.08 384.62 1000"/><polyline class="cls-1" points="307.69 0 307.69 76.92 307.69 153.85 307.69 230.77 307.69 307.69 307.69 384.62 307.69 461.54 307.69 538.46 307.69 615.38 307.69 692.31 307.69 769.23 307.69 846.15 307.69 923.08 307.69 1000"/><polyline class="cls-1" points="230.77 0 230.77 76.92 230.77 153.85 230.77 230.77 230.77 307.69 230.77 384.62 230.77 461.54 230.77 538.46 230.77 615.38 230.77 692.31 230.77 769.23 230.77 846.15 230.77 923.08 230.77 1000"/><polyline class="cls-1" points="153.85 0 153.85 76.92 153.85 153.85 153.85 230.77 153.85 307.69 153.85 384.62 153.85 461.54 153.85 538.46 153.85 615.38 153.85 692.31 153.85 769.23 153.85 846.15 153.85 923.08 153.85 1000"/><polyline class="cls-1" points="76.92 0 76.92 76.92 76.92 153.85 76.92 230.77 76.92 307.69 76.92 384.62 76.92 461.54 76.92 538.46 76.92 615.38 76.92 692.31 76.92 769.23 76.92 846.15 76.92 923.08 76.92 1000"/></svg>