<svg xmlns="http://www.w3.org/2000/svg" viewBox="0 0 1000 1000">
  <defs>
    <style>
      .cls-1 {
        fill: #fff;
      }

      .cls-2 {
        fill: #2e6348;
      }

      .cls-3,
      .cls-4 {
        fill: none;
        stroke:  #2e6348;
        stroke-miterlimit: 10;
      }

      .cls-3 {
        stroke-width: 20px;
      }

      .cls-4 {
        stroke-width: 40px;
      }
    </style>
  </defs>
  <g id="Layer_2" data-name="Layer 2">
    <rect class="cls-1" width="1000" height="1000" />
  </g>
  <g id="Layer_1" data-name="Layer 1">
    <path class="cls-2" d="M537.043,270.1023q23.85-31.35,23.85-71.67-.54-50.3848-32.81-83.15-31.74-33.03-82.73-33.59-45.57.555-76.76,32.95a119.0506,119.0506,0,0,0-26.73,46.14,100.6709,100.6709,0,0,0-33.08-48.88q-31.2-26.85-80.56-26.86H73.8829v407.83h59.8v-174.29h76.6l81.76,174.29h268.85v-58.16h-151.01Zm-403.36-6.29v-123.97h93.98q28.8,0,44,12.62,19.29,14.31,19.83,46.28,0,26.64-16.57,44.88-16.83,19.635-50.52,20.19Zm201.82,174.45-63.84-126.37q75.195-29.925,76.28-113a1.2223,1.2223,0,0,0-.01-.19h44.02q2.9849-28.02,19.02-43.44,15.48-15.42,38.86-15.42,26.355.57,40.76,17.66,13.86,17.1,13.85,40.08a85.6334,85.6334,0,0,1-2.17,18.5q-3.255,10.3648-12.22,22.42l-154.55,199.55Z" />
    <polyline class="cls-3" points="583.469 81.692 918.308 81.692 918.308 918.308 81.692 918.308 81.692 517.395" />
    <polyline class="cls-4" points="583.759 168.039 835.741 168.039 835.741 839.521 164.259 839.521 164.259 517.742" />
  </g>
</svg>