<svg xmlns="http://www.w3.org/2000/svg" viewBox="0 0 250 250">
  <defs>
    <style>
      .cls-1 {
        fill: #2e6348;
      }
    </style>
  </defs>
  <g id="Full">
    <rect class="cls-1" width="250" height="250" />
  </g>
  <g id="dead-end-left">
    <path class="cls-1" d="M0,0,250,0V40H120a80,80,0,0,0-80,80v10a80,80,0,0,0,80,80l130,0v40L0,250Z" />
  </g>
  <g id="T-from-right">
    <rect class="cls-1" x="-105" y="105" width="250" height="40" transform="translate(-105 145) rotate(-90)" />
    <path class="cls-1" d="M250,250V210a40,40,0,0,0-40,40Z" />
    <path class="cls-1" d="M250,0H210a40.0146,40.0146,0,0,0,11.7157,28.2843A40.0141,40.0141,0,0,0,250,40Z" />
  </g>
  <g id="T-from-top">
    <rect class="cls-1" y="210" width="250" height="40" transform="matrix(-1, 0, 0, -1, 250, 460)" />
    <path class="cls-1" d="M250,0H210a40.0141,40.0141,0,0,0,11.7157,28.2843A40.0146,40.0146,0,0,0,250,40Z" />
    <path class="cls-1" d="M0,0V40A40.0146,40.0146,0,0,0,28.2843,28.2843,40.0146,40.0146,0,0,0,40,0Z" />
  </g>
  <g id="cross">
    <path class="cls-1" d="M0,250H40a40.0146,40.0146,0,0,0-11.7157-28.2843A40.0141,40.0141,0,0,0,0,210Z" />
    <path class="cls-1" d="M250,250V210a40,40,0,0,0-40,40Z" />
    <path class="cls-1" d="M250,0H210a40.0146,40.0146,0,0,0,11.7157,28.2843A40.0146,40.0146,0,0,0,250,40Z" />
    <path class="cls-1" d="M0,0V40A40.0146,40.0146,0,0,0,28.2843,28.2843,40.0141,40.0141,0,0,0,40,0Z" />
  </g>
  <g id="dead-end-bottom">
    <path class="cls-1" d="M0,250V0H40V130a80,80,0,0,0,80,80h10a80,80,0,0,0,80-80V0h40V250Z" />
  </g>
  <g id="T-from-left">
    <rect class="cls-1" x="105" y="105" width="250" height="40" transform="translate(355 -105) rotate(90)" />
    <path class="cls-1" d="M0,0V40A40.0146,40.0146,0,0,0,28.2843,28.2843,40.0141,40.0141,0,0,0,40,0Z" />
    <path class="cls-1" d="M0,250H40a40.0141,40.0141,0,0,0-11.7157-28.2843A40.0141,40.0141,0,0,0,0,210Z" />
  </g>
  <g id="T-from-bottom">
    <rect class="cls-1" width="250" height="40" />
    <path class="cls-1" d="M0,250H40a40.0141,40.0141,0,0,0-11.7157-28.2843A40.0141,40.0141,0,0,0,0,210Z" />
    <path class="cls-1" d="M250,250V210a40,40,0,0,0-40,40Z" />
  </g>
  <g id="horizontal">
    <rect class="cls-1" y="210" width="250" height="40" />
    <rect class="cls-1" width="250" height="40" />
  </g>
  <g id="top-right">
    <path class="cls-1" d="M250,0V250H210V119.8035a79.9346,79.9346,0,0,0-80-79.869H0V0Z" />
    <path class="cls-1" d="M0,250H40a40.0141,40.0141,0,0,0-11.7157-28.2843A40.0146,40.0146,0,0,0,0,210Z" />
  </g>
  <g id="top-left">
    <path class="cls-1" d="M0,0V250H40V119.8035a79.9346,79.9346,0,0,1,80-79.869H250V0Z" />
    <path class="cls-1" d="M250,250H210a40,40,0,0,1,40-40Z" />
  </g>
  <g id="dead-end-top">
    <path class="cls-1" d="M250,0V250H210V120a80,80,0,0,0-80-80H120a80,80,0,0,0-80,80V250H0V0Z" />
  </g>
  <g id="vertical">
    <rect class="cls-1" x="-105" y="105" width="250" height="40" transform="translate(145 105) rotate(90)" />
    <rect class="cls-1" x="105" y="105" width="250" height="40" transform="translate(355 -105) rotate(90)" />
  </g>
  <g id="bottom-left">
    <path class="cls-1" d="M0,250V0H40V130.1965a79.9346,79.9346,0,0,0,80,79.869H250V250Z" />
    <path class="cls-1" d="M250,0H210a40.0146,40.0146,0,0,0,11.7157,28.2843A40.0146,40.0146,0,0,0,250,40Z" />
  </g>
  <g id="bottom-right">
    <path class="cls-1" d="M250,250V0H210V130.1965a79.9346,79.9346,0,0,1-80,79.869H0V250Z" />
    <path class="cls-1" d="M0,0H40A40.0141,40.0141,0,0,1,28.2843,28.2843,40.0146,40.0146,0,0,1,0,40Z" />
  </g>
  <g id="dead-end-right">
    <path class="cls-1" d="M250,250H0V210H130a80,80,0,0,0,80-80V120a80,80,0,0,0-80-80H0V0H250Z" />
  </g>
</svg>