<svg xmlns="http://www.w3.org/2000/svg" viewBox="0 0 1000 1000" style="display:none;">
  <defs>
    <style>
      .cls-1 {
        fill: #111111;
      }
    </style>
  </defs>
  <symbol id="Full">
    <rect class="cls-1" width="250" height="250"/>
  </g>
  <g id="dead-end-left">
    <path class="cls-1" d="M750,750l250,0v40H870a80,80,0,0,0-80,80v10a80,80,0,0,0,80,80l130,0,0,40-250,0Z"/>
  </g>
  <g id="T-from-right">
    <rect class="cls-1" x="395" y="855.0001" width="250" height="40" transform="translate(-355.0001 1395.0001) rotate(-90)"/>
    <path class="cls-1" d="M750,1000V960a40,40,0,0,0-40,40Z"/>
    <path class="cls-1" d="M750,750H710a40,40,0,0,0,40,40Z"/>
  </g>
  <g id="T-from-top">
    <rect class="cls-1" x="250" y="960.0001" width="250" height="40" transform="matrix(-1, 0, 0, -1, 750, 1960.0001)"/>
    <path class="cls-1" d="M500,750H460a40,40,0,0,0,40,40Z"/>
    <path class="cls-1" d="M250,750v40a40,40,0,0,0,40-40Z"/>
  </g>
  <g id="cross">
    <path class="cls-1" d="M0,1000H40a40.0146,40.0146,0,0,0-11.7157-28.2843A40.0141,40.0141,0,0,0,0,960Z"/>
    <path class="cls-1" d="M250,1000V960a40,40,0,0,0-40,40Z"/>
    <path class="cls-1" d="M250,750H210a40,40,0,0,0,40,40Z"/>
    <path class="cls-1" d="M0,750v40a40.0146,40.0146,0,0,0,28.2843-11.7157A40.0141,40.0141,0,0,0,40,750Z"/>
  </g>
  <g id="dead-end-bottom">
    <path class="cls-1" d="M750,750V500h40V630a80,80,0,0,0,80,80h10a80,80,0,0,0,80-80V500h40V750Z"/>
  </g>
  <g id="T-from-left">
    <rect class="cls-1" x="605" y="605" width="250" height="40" transform="translate(1355.0001 -105) rotate(90)"/>
    <path class="cls-1" d="M500,500v40a40,40,0,0,0,40-40Z"/>
    <path class="cls-1" d="M500,750h40a40,40,0,0,0-40-40Z"/>
  </g>
  <g id="T-from-bottom">
    <rect class="cls-1" x="250" y="500" width="250" height="40"/>
    <path class="cls-1" d="M250,750h40a40,40,0,0,0-40-40Z"/>
    <path class="cls-1" d="M500,750V710a40,40,0,0,0-40,40Z"/>
  </g>
  <g id="horizontal">
    <g>
      <rect class="cls-1" y="710" width="250" height="40"/>
      <rect class="cls-1" y="500" width="250" height="40"/>
    </g>
  </g>
  <g id="top-right">
    <path class="cls-1" d="M500,0V250H460V119.8035a79.9346,79.9346,0,0,0-80-79.869H250V0Z"/>
    <path class="cls-1" d="M250,250h40a40,40,0,0,0-40-40Z"/>
  </g>
  <g id="top-left">
    <path class="cls-1" d="M500,0V250h40V119.8035a79.9347,79.9347,0,0,1,80-79.869H750V0Z"/>
    <path class="cls-1" d="M750,250H710a40,40,0,0,1,40-40Z"/>
  </g>
  <g id="dead-end-top">
    <path class="cls-1" d="M1000,0V250H960V120a80,80,0,0,0-80-80H870a80,80,0,0,0-80,80V250H750V0Z"/>
  </g>
  <g id="vertical">
    <g>
      <rect class="cls-1" x="-105" y="355" width="250" height="40" transform="translate(395 355) rotate(90)"/>
      <rect class="cls-1" x="105" y="355" width="250" height="40" transform="translate(605 145) rotate(90)"/>
    </g>
  </g>
  <g id="bottom-left">
    <path class="cls-1" d="M250,500V250h40V380.1965a79.9346,79.9346,0,0,0,80,79.869H500V500Z"/>
    <path class="cls-1" d="M500,250H460a40,40,0,0,0,40,40Z"/>
  </g>
  <g id="bottom-right">
    <path class="cls-1" d="M750,500V250H710V380.1965a79.9346,79.9346,0,0,1-80,79.869H500V500Z"/>
    <path class="cls-1" d="M500,250h40a40,40,0,0,1-40,40Z"/>
  </g>
  <g id="dead-end-right">
    <path class="cls-1" d="M1000,500l-250,0V460H880a80,80,0,0,0,80-80V370a80,80,0,0,0-80-80H750V250l250,0Z"/>
  </g>
</svg>